PathFileType	4	(X/Y/Z)	1H_rest_slow_right.trc
DataRate	CameraRate	NumFrames	NumMarkers	Units	OrigDataRate	OrigDataStartFrame	OrigNumFrames
250.00	250.00	10	18	mm	250.00	15887	21182
Frame#	Time	c7	r_should	l_should	clavicle	r_upa	r_elb_l	r_elb_m	r_low	r_wri_l	r_wri_m	r_met	l_upa	l_elb_l	l_elb_m	l_low	l_wri_l	l_wri_m	l_met
	X1	Y1	Z1	X2	Y2	Z2	X3	Y3	Z3	X4	Y4	Z4	X5	Y5	Z5	X6	Y6	Z6	X7	Y7	Z7	X8	Y8	Z8	X9	Y9	Z9	X10	Y10	Z10	X11	Y11	Z11	X12	Y12	Z12	X13	Y13	Z13	X14	Y14	Z14	X15	Y15	Z15	X16	Y16	Z16	X17	Y17	Z17	X18	Y18	Z18
15887	63.54400	581.99451	1413.85107	303.02457	644.57251	1363.66797	436.18869	610.13348	1373.05396	126.05575	729.91241	1297.03894	267.46387	723.89697	1186.27502	510.49847	741.97467	1118.70361	530.10962	775.96881	1079.37537	434.78503	792.25189	1234.84753	489.77106	784.80902	1296.00781	457.27933	852.34827	1277.23425	429.78479	815.36615	1374.62207	479.78882	609.41919	1185.31580	47.47686	626.63898	1077.76855	33.09511	584.40076	1037.90771	101.06573	675.96777	915.64606	31.76319	710.18030	844.56403	63.43229	646.23572	822.29181	35.01409	741.01892	757.67389	32.41393
15888	63.54800	581.96899	1413.83643	302.96713	644.51727	1363.66858	436.14703	610.15259	1373.03540	126.00796	729.90887	1297.03711	267.45123	723.90973	1186.31445	510.46664	742.02264	1118.75867	530.10645	776.02484	1079.43872	434.77347	792.23834	1234.92383	489.74252	784.76379	1296.07458	457.22269	852.30267	1277.32715	429.72052	815.27203	1374.70264	479.71631	609.51245	1185.29492	47.44472	626.76074	1077.75012	33.07417	584.51990	1037.87561	101.03822	676.45880	915.77563	31.62012	710.37024	844.57300	63.43821	646.44501	822.27692	35.00963	741.24780	757.69916	32.42789
15889	63.55200	581.94550	1413.82141	302.91415	644.45935	1363.66943	436.10754	610.16687	1373.02344	125.95689	729.89459	1297.03955	267.44077	723.91895	1186.36682	510.44171	742.07056	1118.81763	530.10437	776.07709	1079.49109	434.76346	792.22321	1235.00183	489.70959	784.71796	1296.14282	457.17770	852.26392	1277.41931	429.65826	815.18304	1374.78784	479.64746	609.61145	1185.27393	47.41463	626.89276	1077.72913	33.05560	584.65356	1037.84485	101.00754	677.36218	916.07526	31.30939	710.55432	844.57983	63.44800	646.65833	822.25977	35.00212	741.47491	757.71967	32.44917
15890	63.55600	581.92365	1413.80908	302.87302	644.39978	1363.67688	436.06805	610.17535	1373.00415	125.90562	729.88306	1297.04797	267.42065	723.92963	1186.41357	510.42032	742.11884	1118.87573	530.10248	776.12262	1079.53772	434.76053	792.21564	1235.08093	489.67484	784.67670	1296.20605	457.12973	852.22546	1277.50818	429.59509	815.09363	1374.86816	479.58011	609.70441	1185.25415	47.38159	627.01642	1077.70557	33.03901	584.78101	1037.82007	100.97614	677.71228	916.16101	31.22882	710.73334	844.58881	63.45654	646.86841	822.24725	34.99580	741.70068	757.73730	32.46490
15891	63.56000	581.90009	1413.79785	302.83167	644.34485	1363.67773	436.01474	610.17834	1372.98486	125.85667	729.86884	1297.05383	267.40613	723.94641	1186.46387	510.40231	742.17316	1118.93750	530.10706	776.16193	1079.58948	434.76825	792.21124	1235.15576	489.64771	784.63885	1296.26843	457.08221	852.18921	1277.59375	429.53812	815.01587	1374.94470	479.51306	609.79486	1185.23669	47.34362	627.13391	1077.68652	33.01040	584.91486	1037.79102	100.94337	677.91870	916.17932	31.21174	710.91357	844.59637	63.47061	647.06964	822.23950	34.98728	741.92389	757.74915	32.48092
15892	63.56400	581.87988	1413.78711	302.78799	644.29761	1363.67615	435.96420	610.17389	1372.96460	125.80895	729.85553	1297.05762	267.38409	723.95459	1186.51636	510.38660	742.22363	1119.00586	530.10657	776.20374	1079.64185	434.77219	792.20319	1235.22827	489.61798	784.60321	1296.33240	457.04135	852.16052	1277.67920	429.48984	814.94171	1375.00757	479.43497	609.88507	1185.21545	47.31720	627.25378	1077.66467	32.97894	585.04022	1037.76587	100.91145	678.08319	916.17786	31.20810	711.09686	844.60236	63.47990	647.26758	822.23248	34.97562	742.14386	757.76221	32.50166
15893	63.56800	581.85913	1413.77002	302.73926	644.25171	1363.67249	435.91003	610.16364	1372.94653	125.75751	729.83954	1297.05273	267.35342	723.96875	1186.56494	510.38080	742.26270	1119.07996	530.11237	776.24982	1079.69788	434.76987	792.19446	1235.30701	489.58224	784.57007	1296.38965	456.99808	852.13708	1277.75647	429.44443	814.85846	1375.07458	479.36526	609.84912	1185.00781	47.33158	627.37976	1077.64355	32.95269	585.16266	1037.73267	100.88168	678.25226	916.15302	31.21735	711.27832	844.60419	63.49058	647.45795	822.22198	34.95614	742.35663	757.77234	32.52251
15894	63.57200	581.83734	1413.74805	302.68521	644.20825	1363.67444	435.86093	610.15344	1372.91931	125.71198	729.82324	1297.05383	267.32339	723.98602	1186.62036	510.37054	742.30347	1119.14478	530.11462	776.28369	1079.74548	434.77768	792.19281	1235.38159	489.55124	784.53906	1296.44373	456.95047	852.11871	1277.83032	429.40073	814.78094	1375.14209	479.29694	609.77936	1184.75281	47.35569	627.50256	1077.61768	32.92693	585.28729	1037.69507	100.85834	678.41437	916.12604	31.21992	711.47028	844.60211	63.49598	647.65704	822.19812	34.93171	742.56494	757.77771	32.53914
15895	63.57600	581.81824	1413.72632	302.63425	644.16327	1363.67542	435.81195	610.14209	1372.89392	125.65891	729.80151	1297.04944	267.29987	724.01215	1186.67603	510.35696	742.34216	1119.21838	530.12030	776.31506	1079.78845	434.78027	792.18756	1235.46509	489.52072	784.51056	1296.49927	456.89771	852.09552	1277.90479	429.34857	814.70966	1375.20898	479.22260	610.05573	1185.02661	47.23996	627.60974	1077.59436	32.89674	585.41217	1037.66077	100.83020	678.57263	916.10553	31.21397	711.66064	844.60071	63.49524	647.85681	822.17316	34.91145	742.77020	757.78412	32.55398
15896	63.58000	581.79840	1413.70715	302.57574	644.11920	1363.67493	435.75882	610.12866	1372.86804	125.60506	729.78436	1297.04102	267.26205	724.03705	1186.73132	510.34009	742.38446	1119.28699	530.12628	776.34155	1079.83398	434.78845	792.18463	1235.53284	489.48135	784.48358	1296.56152	456.83893	852.07574	1277.97778	429.29245	814.64642	1375.27734	479.14203	610.17603	1185.06714	47.18340	627.72095	1077.56897	32.86391	585.52289	1037.62244	100.80172	678.72290	916.09064	31.19992	711.84674	844.59839	63.49152	648.05103	822.15149	34.88904	742.97583	757.78851	32.55595
